:FULLY-SPECIFIED
:FORCE-ALL-JOINTS-BE-3DOF
:DEGREES
170
root 6.49406 16.093 -25.6573 3.8493 29.1612 1.39742
lfemur -25.6341 30.5855 -15.6881
ltibia 41.8184 -0 0
lfoot -8.96169 8.18578 0.178222
ltoes 9.33037 -0 0
rfemur -20.2905 -3.60485 -5.11141
rtibia 59.0718 -0 0
rfoot 6.3187 -25.9257 0.010721
rtoes 42.4098 -0 0
lowerback 1.24346 -4.73112 -1.2463
upperback 0.0505803 -6.33441 -2.60696
thorax -0.784357 -3.16606 -1.84022
lowerneck -9.49548 -7.40855 -1.38328
upperneck 1.79794 -9.96952 5.32236
head 2.59333 -4.79917 1.41917
lclavicle -0 0 0
lhumerus -50.0233 -41.6324 115.522
lradius 52.2433 -0 0
lwrist 15.2625 0 0
lhand 37.4096 28.4091 -0.000604839
lfingers 0 -0 0
lthumb 60.2129 41.9454 -0.00444372
rclavicle -0 0 0
rhumerus -48.7274 -11.8601 -81.0556
rradius 89.9031 -0 0
rwrist -4.04448 0 0
rhand -40.1335 -49.415 0.615323
rfingers 0 -0 0
rthumb -13.09 -78.8454 0.580871
171
root 6.42821 16.0943 -25.6331 3.96219 28.312 1.37667
lfemur -24.9045 28.9907 -13.891
ltibia 41.539 -0 0
lfoot -10.1319 5.28142 0.297334
ltoes 5.31794 -0 0
rfemur -19.5196 -3.86268 -5.14938
rtibia 56.8405 -0 0
rfoot 3.9976 -26.0138 0.0178782
rtoes 42.4751 -0 0
lowerback 0.9099 -4.41362 -1.07792
upperback 0.0384181 -5.89909 -2.89554
thorax -0.63527 -2.95123 -2.25811
lowerneck -9.58084 -7.39187 -1.04124
upperneck 1.91156 -9.99417 5.34239
head 2.62875 -4.80339 1.36187
lclavicle -0 0 0
lhumerus -50.4759 -41.8782 115.549
lradius 52.2089 -0 0
lwrist 15.2099 0 0
lhand 37.7142 28.3712 -0.00100807
lfingers 0 -0 0
lthumb 60.4708 41.6163 -0.00740633
rclavicle -0 0 0
rhumerus -49.076 -8.92467 -82.5002
rradius 90.6434 -0 0
rwrist -3.59963 0 0
rhand -36.9911 -45.6888 1.02805
rfingers 0 -0 0
rthumb -10.0572 -75.2 0.970357
172
root 6.36237 16.0956 -25.609 4.07454 27.4629 1.3542
lfemur -24.2423 27.3771 -12.1437
ltibia 41.2597 -0 0
lfoot -11.3066 2.3752 0.356979
ltoes 1.30551 -0 0
rfemur -18.7484 -4.11997 -5.19083
rtibia 54.6092 -0 0
rfoot 1.67649 -26.1022 0.0214597
rtoes 42.5403 -0 0
lowerback 0.577415 -4.09514 -0.911467
upperback 0.0240627 -5.46384 -3.18401
thorax -0.487783 -2.73531 -2.67535
lowerneck -9.6661 -7.37469 -0.699249
upperneck 2.02517 -10.0189 5.36238
head 2.66418 -4.80757 1.30457
lclavicle -0 0 0
lhumerus -50.9304 -42.1238 115.578
lradius 52.1744 -0 0
lwrist 15.1572 0 0
lhand 38.0189 28.3333 -0.00120969
lfingers 0 -0 0
lthumb 60.7286 41.2872 -0.00888767
rclavicle -0 0 0
rhumerus -49.4965 -5.99882 -83.953
rradius 91.3837 -0 0
rwrist -3.15478 0 0
rhand -33.8282 -41.9453 1.23517
rfingers 0 -0 0
rthumb -7.00559 -71.5388 1.16578
173
root 6.29653 16.0968 -25.5848 4.18642 26.6138 1.33004
lfemur -23.6444 25.7466 -10.4418
ltibia 40.9804 -0 0
lfoot -12.4829 -0.531633 0.356979
ltoes -2.70691 0 0
rfemur -17.9766 -4.37669 -5.23577
rtibia 52.3778 -0 0
rfoot -0.64462 -26.1906 0.0214597
rtoes 42.6056 -0 0
lowerback 0.245987 -3.77571 -0.746932
upperback 0.00751767 -5.02867 -3.47238
thorax -0.341899 -2.51833 -3.09197
lowerneck -9.75124 -7.357 -0.357293
upperneck 2.13879 -10.0436 5.38233
head 2.6996 -4.81172 1.24727
lclavicle -0 0 0
lhumerus -51.3869 -42.3693 115.609
lradius 52.1399 -0 0
lwrist 15.1045 0 0
lhand 38.3236 28.2953 -0.00120969
lfingers 0 -0 0
lthumb 60.9866 40.9582 -0.00888767
rclavicle -0 0 0
rhumerus -49.9895 -3.08454 -85.4215
rradius 92.1241 -0 0
rwrist -2.70993 0 0
rhand -30.6584 -38.1959 1.23517
rfingers 0 -0 0
rthumb -3.9476 -67.8722 1.16578
174
root 6.23069 16.0981 -25.5607 4.29789 25.7648 1.30421
lfemur -23.1077 24.1011 -8.78111
ltibia 40.7011 -0 0
lfoot -13.6576 -3.43785 0.297334
ltoes -6.71934 0 0
rfemur -17.2044 -4.63278 -5.28419
rtibia 50.1465 -0 0
rfoot -2.96573 -26.279 0.0178782
rtoes 42.6708 -0 0
lowerback -0.0844037 -3.45534 -0.584309
upperback -0.0112138 -4.59359 -3.76069
thorax -0.197621 -2.30029 -3.50796
lowerneck -9.83628 -7.33881 -0.015378
upperneck 2.2524 -10.0684 5.40222
head 2.73503 -4.81583 1.18996
lclavicle -0 0 0
lhumerus -51.8453 -42.6145 115.644
lradius 52.1054 -0 0
lwrist 15.0518 0 0
lhand 38.6283 28.2574 -0.00100807
lfingers 0 -0 0
lthumb 61.2444 40.6291 -0.00740633
rclavicle -0 0 0
rhumerus -50.5563 -0.183921 -86.9128
rradius 92.8644 -0 0
rwrist -2.26508 0 0
rhand -27.4955 -34.4524 1.02805
rfingers 0 -0 0
rthumb -0.895954 -64.211 0.970357
175
root 6.16484 16.0994 -25.5365 4.40899 24.9158 1.27674
lfemur -22.6294 22.4424 -7.1576
ltibia 40.4217 -0 0
lfoot -14.8278 -6.34221 0.178222
ltoes -10.7318 0 0
rfemur -16.4317 -4.88819 -5.33609
rtibia 47.9152 -0 0
rfoot -5.28683 -26.3671 0.010721
rtoes 42.7361 -0 0
lowerback -0.413776 -3.13404 -0.423592
upperback -0.0321292 -4.1586 -4.04897
thorax -0.0549529 -2.08121 -3.92335
lowerneck -9.9212 -7.32012 0.326495
upperneck 2.36602 -10.0932 5.42206
head 2.77047 -4.81991 1.13265
lclavicle -0 0 0
lhumerus -52.3058 -42.8596 115.681
lradius 52.071 -0 0
lwrist 14.9992 0 0
lhand 38.9329 28.2195 -0.000604839
lfingers 0 -0 0
lthumb 61.5023 40.3 -0.00444372
rclavicle -0 0 0
rhumerus -51.199 2.70081 -88.4344
rradius 93.6047 -0 0
rwrist -1.82023 0 0
rhand -24.3531 -30.7262 0.615323
rfingers 0 -0 0
rthumb 2.13678 -60.5656 0.580871
